<svg id="svg" version="1.1" xmlns="http://www.w3.org/2000/svg" xmlns:xlink="http://www.w3.org/1999/xlink" width="400"
     height="246.5" viewBox="0, 0, 400,246.5">
    <linearGradient id="grad" x1="0%" y1="0%" x2="0%" y2="100%">
        <stop offset="0%" style="stop-color:#fc66a2;stop-opacity:1"/>
        <stop offset="100%" style="stop-color:#f78e6a;stop-opacity:1"/>
    </linearGradient>
    <g id="svgg">
        <path id="path0"
              d="M209.992 0.411 C 201.890 2.897,200.188 16.049,205.784 32.922 C 211.315 49.598,216.598 60.916,223.998 71.946 C 229.232 79.748,236.408 91.296,238.681 95.574 C 239.249 96.643,240.006 97.519,241.344 98.657 C 249.689 105.754,256.689 117.510,258.584 127.608 C 258.789 128.703,258.914 128.699,259.679 127.575 C 262.035 124.115,257.677 114.061,248.470 101.716 C 236.728 85.972,236.584 73.506,248.016 62.258 C 249.081 61.211,249.801 60.319,249.672 60.208 C 249.547 60.099,247.947 58.891,246.116 57.524 C 231.807 46.839,220.722 34.998,215.464 24.784 C 208.577 11.405,207.747 6.086,211.730 0.865 L 212.389 0.000 211.805 0.017 C 211.484 0.027,210.668 0.204,209.992 0.411 M188.656 1.464 C 188.656 1.627,188.975 2.225,189.365 2.792 C 192.652 7.570,191.666 12.965,185.165 25.771 C 180.488 34.982,170.855 45.619,157.694 56.102 C 156.209 57.286,154.965 58.279,154.931 58.310 C 154.896 58.341,155.488 59.293,156.245 60.425 C 164.328 72.500,163.522 90.032,154.322 102.230 C 145.108 114.450,140.484 124.363,142.145 128.338 C 142.743 129.768,142.926 129.530,143.888 126.067 C 146.819 115.530,151.329 107.585,158.371 100.556 C 160.436 98.494,161.743 96.971,162.170 96.130 C 163.941 92.634,170.029 82.840,176.473 73.119 C 183.371 62.714,186.885 55.547,192.553 40.321 C 199.306 22.179,199.890 9.612,194.246 3.861 C 192.471 2.051,188.656 0.416,188.656 1.464 M273.120 9.205 C 265.258 15.195,258.518 24.607,256.723 32.102 C 255.058 39.051,256.154 44.590,260.668 52.035 C 262.457 54.985,277.650 83.490,279.465 87.300 C 282.165 92.970,283.600 97.476,283.600 100.286 C 283.600 102.215,283.902 102.292,285.131 100.678 C 294.880 87.884,297.406 70.091,291.566 55.364 C 290.323 52.228,288.195 48.055,287.543 47.472 C 286.607 46.635,284.203 43.595,282.553 41.161 C 275.673 31.012,272.967 20.053,274.828 9.881 C 275.293 7.341,275.472 7.412,273.120 9.205 M127.305 8.666 C 128.312 11.289,128.495 20.472,127.620 24.414 C 125.780 32.696,120.875 41.825,114.996 47.908 C 113.269 49.694,111.392 53.009,109.731 57.205 C 103.766 72.274,106.304 89.047,116.571 102.404 C 118.050 104.327,118.372 104.277,118.372 102.124 C 118.372 97.182,120.993 91.702,136.370 64.488 C 141.817 54.850,142.292 54.032,143.342 52.478 C 151.056 41.072,148.460 28.004,136.028 15.660 C 132.068 11.728,126.886 7.573,127.305 8.666 M198.287 39.962 C 197.205 47.362,193.064 56.089,186.942 63.872 C 178.178 75.012,171.166 86.009,169.657 90.978 C 168.937 93.346,169.053 93.344,171.335 90.955 C 185.518 76.109,195.069 61.944,195.416 55.242 C 195.495 53.714,195.527 53.641,196.085 53.717 C 197.521 53.913,198.384 54.589,198.890 55.916 C 199.162 56.626,199.522 57.209,199.692 57.211 C 200.263 57.216,199.971 39.964,199.373 38.409 C 198.990 37.413,198.572 38.010,198.287 39.962 M201.496 38.328 C 200.733 39.247,200.365 57.213,201.110 57.213 C 201.313 57.213,201.480 57.017,201.480 56.778 C 201.480 55.435,203.258 53.760,204.682 53.762 C 205.274 53.762,205.304 53.833,205.346 55.303 C 205.528 61.733,215.938 77.174,229.288 90.814 C 231.719 93.298,231.728 93.300,231.188 91.211 C 229.861 86.075,223.422 75.669,215.668 66.130 C 207.636 56.248,202.219 45.218,202.219 38.746 C 202.219 38.103,201.857 37.893,201.496 38.328 M253.898 63.810 C 254.743 67.712,256.077 70.428,261.075 78.422 C 274.374 99.692,276.669 105.527,274.755 113.213 C 273.128 119.751,266.546 126.558,259.972 128.503 C 259.041 128.778,258.926 128.888,259.050 129.384 C 259.609 131.610,260.480 138.068,260.730 141.834 L 260.789 142.731 262.469 141.630 C 263.393 141.024,264.192 140.399,264.245 140.240 C 266.865 132.365,270.730 124.880,273.884 121.574 L 275.224 120.169 275.493 116.743 C 277.248 94.364,269.558 73.852,255.863 64.385 C 253.756 62.929,253.704 62.913,253.898 63.810 M144.711 65.480 C 134.478 72.439,127.878 84.594,125.663 100.563 C 125.156 104.222,125.192 105.112,125.760 102.959 C 126.970 98.376,129.917 92.940,139.531 77.559 C 144.157 70.158,147.658 63.872,147.155 63.872 C 147.112 63.872,146.012 64.596,144.711 65.480 M39.892 66.807 C 36.871 67.037,36.888 67.007,38.892 68.569 C 47.935 75.618,52.816 84.048,54.021 94.698 C 55.772 110.183,57.480 120.309,59.042 124.476 C 59.233 124.985,59.832 126.586,60.373 128.034 C 67.623 147.428,88.154 166.768,124.908 188.823 C 130.539 192.202,139.584 197.261,143.982 199.491 C 145.478 200.249,145.114 200.372,143.119 199.783 C 141.634 199.344,141.162 199.313,139.211 199.522 C 129.065 200.609,106.542 199.847,94.847 198.020 C 91.017 197.422,91.139 197.334,93.286 199.139 C 99.104 204.033,108.100 212.526,110.034 214.951 C 112.315 217.812,121.576 223.509,128.751 226.465 C 144.702 233.038,163.693 233.999,180.691 229.094 C 186.227 227.497,185.177 228.181,178.792 230.331 C 153.998 238.682,128.860 239.466,108.012 232.538 C 92.598 227.416,80.542 219.316,68.557 206.033 C 62.408 199.217,54.663 193.071,44.883 187.245 L 41.554 185.261 35.142 184.845 C 23.701 184.103,11.730 182.710,3.453 181.157 C 1.757 180.839,0.287 180.627,0.185 180.686 C -0.198 180.908,0.027 181.168,0.865 181.471 C 4.640 182.836,28.176 201.769,39.943 212.906 C 71.419 242.696,113.007 251.125,161.652 237.574 C 170.387 235.141,190.140 227.575,190.135 226.666 C 190.132 226.286,177.705 217.725,171.751 214.002 C 165.440 210.055,157.696 205.861,152.052 203.333 C 146.231 200.726,135.588 193.878,127.149 187.311 C 111.696 175.287,99.117 161.039,92.847 148.459 C 91.105 144.964,91.061 144.766,90.906 139.827 C 90.469 125.911,85.549 112.535,77.893 104.446 C 76.596 103.076,76.021 102.305,76.239 102.228 C 82.634 99.959,98.772 102.398,107.594 106.967 C 108.571 107.473,109.446 107.923,109.538 107.966 C 110.323 108.333,105.895 99.142,103.427 95.281 C 90.985 75.815,66.390 64.793,39.892 66.807 M349.322 66.731 C 348.779 66.784,347.059 66.950,345.499 67.098 C 319.201 69.606,299.260 83.563,290.842 105.354 C 289.814 108.017,289.803 107.926,291.060 107.145 C 299.634 101.820,312.137 99.524,321.399 101.575 C 324.614 102.286,324.593 102.260,322.990 103.598 C 320.651 105.550,316.353 109.833,314.845 111.714 C 312.334 114.844,312.286 115.025,311.970 122.441 C 311.283 138.560,310.440 142.677,306.383 149.744 C 292.673 173.630,265.826 197.198,240.567 207.523 C 238.357 208.427,237.545 208.859,238.718 208.508 C 239.904 208.153,239.059 208.592,235.471 210.196 C 218.972 217.573,210.432 223.535,211.221 227.128 C 211.687 229.252,229.446 237.215,241.715 240.801 C 292.232 255.565,338.887 241.242,375.573 199.706 C 380.684 193.918,393.580 184.610,398.767 182.965 C 401.097 182.226,399.627 182.185,394.305 182.842 C 375.347 185.181,362.383 186.202,357.707 185.726 C 343.105 184.239,321.159 184.916,307.011 187.290 C 301.382 188.234,300.573 188.440,301.480 188.695 C 308.394 190.638,329.785 189.647,353.453 186.289 C 355.090 186.057,355.001 186.218,351.726 189.412 C 327.377 213.158,305.201 226.993,280.395 233.914 C 258.945 239.899,235.574 238.298,217.140 229.582 C 213.935 228.067,213.961 227.915,217.291 228.701 C 230.529 231.825,245.094 233.011,254.157 231.701 C 267.690 229.746,285.430 220.200,293.872 210.330 C 295.016 208.992,296.611 207.504,297.993 206.486 C 305.132 201.223,309.248 197.801,309.248 197.128 C 309.248 196.721,309.513 196.719,305.929 197.159 C 304.296 197.359,300.518 197.810,297.534 198.161 C 289.148 199.148,274.395 200.953,271.517 201.344 C 270.092 201.537,267.096 201.932,264.858 202.221 C 255.499 203.431,249.014 204.423,247.965 204.805 C 246.675 205.276,249.326 203.864,252.528 202.376 C 282.783 188.316,311.515 166.578,329.499 144.143 C 339.759 131.343,342.701 124.845,343.286 113.687 C 343.424 111.042,343.757 107.158,344.024 105.055 C 344.292 102.953,344.680 99.236,344.886 96.794 C 345.328 91.570,345.346 91.458,346.168 88.903 C 347.998 83.214,352.390 76.617,358.965 69.684 C 360.371 68.201,361.472 66.939,361.412 66.878 C 361.268 66.735,350.602 66.604,349.322 66.731 M190.993 100.379 C 190.912 100.511,191.412 101.171,192.105 101.846 C 197.945 107.535,192.796 118.430,180.271 126.885 C 172.569 132.085,164.740 140.263,162.454 145.498 C 154.857 162.895,159.762 182.533,175.929 199.445 C 178.433 202.065,178.587 202.597,176.292 200.703 C 169.701 195.264,164.380 188.199,160.253 179.408 C 158.906 176.539,158.538 175.503,155.862 167.053 C 153.367 159.173,149.875 153.307,144.460 147.899 L 141.307 144.750 141.309 142.844 C 141.312 140.605,141.872 135.346,142.403 132.581 C 142.832 130.341,142.833 130.343,141.612 129.947 C 134.044 127.494,126.812 119.919,125.265 112.824 L 124.781 110.604 124.914 114.550 C 125.129 120.925,125.138 120.968,126.693 122.688 C 129.760 126.081,132.954 131.999,135.382 138.787 C 136.407 141.651,136.424 141.640,133.232 140.133 C 128.013 137.669,122.564 136.389,116.461 136.193 L 112.454 136.064 112.410 136.959 C 112.386 137.452,112.358 138.055,112.348 138.300 C 112.338 138.560,113.070 139.382,114.105 140.273 C 118.162 143.765,120.376 146.489,119.894 147.397 C 119.216 148.678,121.329 163.336,122.910 168.311 C 126.534 179.718,143.985 195.219,171.121 211.134 C 172.966 212.216,174.445 213.214,174.408 213.351 C 174.371 213.488,174.463 213.525,174.612 213.432 C 174.761 213.340,175.091 213.487,175.344 213.759 C 176.128 214.600,182.216 216.353,187.458 217.246 C 199.329 219.270,216.590 217.851,223.491 214.285 C 238.813 206.367,261.706 189.468,269.710 180.167 C 271.846 177.684,272.464 176.793,275.046 172.471 C 277.287 168.720,278.845 161.560,279.870 150.308 C 279.994 148.952,280.001 147.665,279.887 147.449 C 279.385 146.501,281.535 143.814,285.584 140.328 C 286.595 139.458,287.412 138.656,287.398 138.547 C 287.385 138.437,287.357 137.834,287.337 137.206 L 287.300 136.064 283.292 136.196 C 268.612 136.680,255.959 144.088,248.731 156.430 C 246.288 160.602,244.762 164.378,243.016 170.573 C 239.804 181.975,233.240 192.447,224.547 200.042 C 221.503 202.701,221.472 202.462,224.438 199.199 C 240.142 181.920,244.673 164.970,238.290 147.377 C 236.029 141.147,228.800 133.044,220.222 127.125 C 207.331 118.230,202.254 107.738,208.032 101.930 C 208.730 101.229,209.233 100.550,209.151 100.421 C 209.041 100.250,201.385 103.270,200.778 103.723 C 200.731 103.758,200.824 108.095,200.984 113.361 L 201.275 122.935 202.696 124.414 C 226.632 149.338,232.493 176.839,218.321 197.721 C 216.578 200.290,216.500 200.182,217.708 196.878 C 224.856 177.338,218.856 151.362,201.525 126.808 C 199.469 123.895,199.407 123.900,197.215 127.127 C 180.279 152.058,174.869 179.453,183.097 198.609 C 184.470 201.805,181.085 197.031,178.925 192.725 C 168.748 172.437,174.938 148.693,196.414 125.642 L 198.947 122.923 199.106 117.873 C 199.194 115.096,199.330 110.771,199.409 108.261 L 199.551 103.699 196.755 102.544 C 195.217 101.908,193.324 101.107,192.550 100.763 C 191.715 100.393,191.081 100.236,190.993 100.379 M159.177 103.979 C 160.259 106.609,160.224 113.367,159.116 115.934 C 158.052 118.398,156.120 121.644,153.861 124.763 C 152.856 126.150,151.789 127.638,151.488 128.069 C 150.202 129.914,149.797 140.362,150.798 145.869 C 151.694 150.802,155.148 158.863,155.710 157.337 C 155.785 157.133,156.247 155.801,156.737 154.377 C 160.945 142.138,166.542 132.051,169.542 131.298 C 170.379 131.088,170.536 129.888,170.504 123.921 C 170.454 114.275,167.214 107.424,161.297 104.451 C 159.499 103.548,158.950 103.425,159.177 103.979 M239.928 104.547 C 232.855 107.241,228.905 116.107,229.633 127.652 C 229.871 131.429,229.830 131.298,230.939 131.824 C 234.264 133.402,239.386 142.719,243.539 154.747 C 244.636 157.925,244.529 157.733,244.986 157.353 C 247.501 155.266,249.928 145.909,249.915 138.348 C 249.903 130.708,249.659 129.712,246.889 125.968 C 241.698 118.952,240.196 115.633,240.199 111.180 C 240.201 107.972,240.538 105.166,240.986 104.626 C 241.417 104.108,241.136 104.087,239.928 104.547 M81.134 184.618 C 80.660 184.678,79.383 184.914,78.298 185.142 C 76.577 185.504,74.414 185.558,61.343 185.565 C 53.102 185.570,46.666 185.650,47.040 185.745 C 49.703 186.415,72.640 188.905,83.231 189.673 C 88.880 190.083,100.011 190.084,102.096 189.676 C 102.978 189.503,104.171 189.300,104.747 189.224 C 106.222 189.029,106.083 188.872,103.637 187.971 C 96.381 185.300,86.906 183.888,81.134 184.618 M168.187 210.222 C 168.187 210.289,168.520 210.517,168.927 210.727 C 169.334 210.938,169.667 211.055,169.667 210.987 C 169.667 210.919,169.334 210.691,168.927 210.481 C 168.520 210.270,168.187 210.154,168.187 210.222 "
              stroke="none" fill="url(#grad)" fill-rule="evenodd"></path>
    </g>
</svg>