<?xml version="1.0" encoding="utf-8"?>
<!-- Generator: Adobe Illustrator 23.0.2, SVG Export Plug-In . SVG Version: 6.00 Build 0)  -->
<svg version="1.1" xmlns="http://www.w3.org/2000/svg" xmlns:xlink="http://www.w3.org/1999/xlink" x="0px" y="0px"
	 width="40px"
	 height="50px"
	 viewBox="0 0 25.6 32.8" style="enable-background:new 0 0 25.6 32.8;" xml:space="preserve">
<style type="text/css">
	.st0{fill:url(#SVGID_1_);}
	.st1{fill-rule:evenodd;clip-rule:evenodd;fill:#FFFFFF;}
</style>
<g id="Слой_1">
	
		<linearGradient id="SVGID_1_" gradientUnits="userSpaceOnUse" x1="-272.3748" y1="425.2268" x2="-272.3748" y2="424.2268" gradientTransform="matrix(-25.6005 0 0 32.7905 -6960.1245 -13910.5947)">
		<stop  offset="0" style="stop-color:#F78E6A"/>
		<stop  offset="1" style="stop-color:#FC66A2"/>
	</linearGradient>
	<path class="st0" d="M12.8,32.8c0,0-3.3-4-10-12c-4.4-5.5-3.5-13.6,2-18s13.6-3.5,18,2c3.7,4.7,3.7,11.3,0,16
		C16.1,28.8,12.8,32.8,12.8,32.8z"/>
</g>
<g id="Слой_2">
	<g id="svgg">
		<path id="path0" class="st1" d="M13.3,6c-0.4,0.1-0.5,0.8-0.2,1.6C13.4,8.4,13.6,9,14,9.5c0.3,0.4,0.6,0.9,0.7,1.1
			c0,0.1,0.1,0.1,0.1,0.1c0.4,0.3,0.7,0.9,0.8,1.4c0,0.1,0,0.1,0.1,0c0.1-0.2-0.1-0.7-0.5-1.3c-0.6-0.8-0.6-1.4,0-1.9
			c0.1-0.1,0.1-0.1,0.1-0.1c0,0-0.1-0.1-0.2-0.1c-0.7-0.5-1.2-1.1-1.5-1.6C13.2,6.5,13.2,6.3,13.3,6l0.1,0L13.3,6
			C13.4,6,13.3,6,13.3,6 M12.3,6.1C12.3,6.1,12.3,6.1,12.3,6.1c0.2,0.3,0.1,0.6-0.2,1.2c-0.2,0.4-0.7,1-1.3,1.5
			c-0.1,0.1-0.1,0.1-0.1,0.1c0,0,0,0,0.1,0.1c0.4,0.6,0.4,1.4-0.1,2c-0.4,0.6-0.7,1.1-0.6,1.3c0,0.1,0,0.1,0.1-0.1
			c0.1-0.5,0.4-0.9,0.7-1.2c0.1-0.1,0.2-0.2,0.2-0.2c0.1-0.2,0.4-0.6,0.7-1.1C12,9,12.2,8.7,12.4,8c0.3-0.9,0.4-1.5,0.1-1.8
			C12.4,6.1,12.3,6,12.3,6.1 M16.4,6.4c-0.4,0.3-0.7,0.7-0.8,1.1c-0.1,0.3,0,0.6,0.2,1c0.1,0.1,0.8,1.5,0.9,1.7
			c0.1,0.3,0.2,0.5,0.2,0.6c0,0.1,0,0.1,0.1,0c0.5-0.6,0.6-1.5,0.3-2.2c-0.1-0.2-0.2-0.4-0.2-0.4c0,0-0.2-0.2-0.2-0.3
			C16.5,7.5,16.3,7,16.4,6.4C16.5,6.4,16.5,6.4,16.4,6.4 M9.3,6.4c0,0.1,0.1,0.6,0,0.8C9.2,7.6,9,8,8.7,8.3C8.6,8.4,8.5,8.6,8.4,8.8
			C8.1,9.5,8.3,10.3,8.8,11c0.1,0.1,0.1,0.1,0.1,0c0-0.2,0.1-0.5,0.9-1.8C10,8.7,10,8.6,10.1,8.5c0.4-0.6,0.2-1.2-0.4-1.8
			C9.5,6.6,9.3,6.4,9.3,6.4 M12.7,7.9c-0.1,0.4-0.3,0.8-0.6,1.2c-0.4,0.5-0.8,1.1-0.8,1.3c0,0.1,0,0.1,0.1,0
			c0.7-0.7,1.2-1.4,1.2-1.7c0-0.1,0-0.1,0-0.1c0.1,0,0.1,0,0.1,0.1c0,0,0,0.1,0,0.1C12.8,8.8,12.8,7.9,12.7,7.9
			C12.8,7.8,12.7,7.8,12.7,7.9 M12.9,7.9c0,0-0.1,0.9,0,0.9c0,0,0,0,0,0c0-0.1,0.1-0.1,0.2-0.1c0,0,0,0,0,0.1c0,0.3,0.5,1.1,1.2,1.7
			c0.1,0.1,0.1,0.1,0.1,0c-0.1-0.2-0.4-0.8-0.8-1.2C13.2,8.7,12.9,8.2,12.9,7.9C12.9,7.8,12.9,7.8,12.9,7.9 M15.4,9.1
			c0,0.2,0.1,0.3,0.3,0.7c0.6,1,0.8,1.3,0.7,1.7c-0.1,0.3-0.4,0.6-0.7,0.7c0,0-0.1,0,0,0c0,0.1,0.1,0.4,0.1,0.6l0,0l0.1-0.1
			c0,0,0.1-0.1,0.1-0.1c0.1-0.4,0.3-0.7,0.5-0.9l0.1-0.1l0-0.2C16.6,10.6,16.2,9.6,15.4,9.1C15.4,9.1,15.4,9.1,15.4,9.1 M10.1,9.2
			c-0.5,0.3-0.8,0.9-0.9,1.7c0,0.2,0,0.2,0,0.1c0.1-0.2,0.2-0.5,0.7-1.2c0.2-0.4,0.4-0.7,0.4-0.7C10.2,9.1,10.2,9.1,10.1,9.2 M5,9.2
			C4.9,9.3,4.9,9.2,5,9.2c0.4,0.4,0.6,0.8,0.7,1.4C5.8,11.3,5.9,11.8,6,12c0,0,0,0.1,0.1,0.2c0.4,0.9,1.3,1.9,3.1,3
			c0.3,0.2,0.7,0.4,0.9,0.5c0.1,0,0.1,0,0,0c-0.1,0-0.1,0-0.2,0c-0.5,0.1-1.6,0-2.2-0.1c-0.2,0-0.2,0-0.1,0.1
			c0.3,0.2,0.7,0.7,0.8,0.8C8.5,16.6,9,16.9,9.3,17c0.8,0.3,1.7,0.4,2.5,0.1c0.3-0.1,0.2,0-0.1,0.1c-1.2,0.4-2.4,0.4-3.4,0.1
			C7.6,17,7,16.6,6.4,16c-0.3-0.3-0.7-0.6-1.1-0.9L5.1,15l-0.3,0c-0.6,0-1.1-0.1-1.5-0.2c-0.1,0-0.2,0-0.2,0c0,0,0,0,0,0
			c0.2,0.1,1.3,1,1.9,1.5c1.5,1.4,3.5,1.9,5.9,1.2c0.4-0.1,1.4-0.5,1.4-0.5c0,0-0.6-0.4-0.9-0.6c-0.3-0.2-0.7-0.4-1-0.5
			c-0.3-0.1-0.8-0.5-1.2-0.8c-0.8-0.6-1.4-1.3-1.7-1.9C7.5,13,7.5,13,7.5,12.8c0-0.7-0.3-1.3-0.6-1.7C6.8,11,6.8,11,6.8,11
			c0.3-0.1,1.1,0,1.5,0.2c0,0,0.1,0,0.1,0c0,0-0.2-0.4-0.3-0.6C7.5,9.7,6.3,9.1,5,9.2 M20.1,9.2c0,0-0.1,0-0.2,0
			c-1.3,0.1-2.2,0.8-2.7,1.9c0,0.1-0.1,0.1,0,0.1c0.4-0.3,1-0.4,1.5-0.3c0.2,0,0.2,0,0.1,0.1c-0.1,0.1-0.3,0.3-0.4,0.4
			c-0.1,0.2-0.1,0.2-0.1,0.5c0,0.8-0.1,1-0.3,1.3c-0.7,1.2-2,2.3-3.2,2.8c-0.1,0-0.1,0.1-0.1,0c0.1,0,0,0-0.2,0.1
			c-0.8,0.4-1.2,0.6-1.2,0.8c0,0.1,0.9,0.5,1.5,0.7c2.5,0.7,4.7,0,6.5-2c0.2-0.3,0.9-0.7,1.1-0.8c0.1,0,0,0-0.2,0
			C21.3,15,20.7,15,20.5,15c-0.7-0.1-1.8,0-2.5,0.1c-0.3,0-0.3,0.1-0.3,0.1c0.3,0.1,1.4,0,2.5-0.1c0.1,0,0.1,0-0.1,0.2
			c-1.2,1.2-2.3,1.8-3.5,2.2c-1,0.3-2.2,0.2-3.1-0.2c-0.2-0.1-0.2-0.1,0,0c0.6,0.2,1.4,0.2,1.8,0.1c0.7-0.1,1.5-0.6,1.9-1
			c0.1-0.1,0.1-0.1,0.2-0.2c0.3-0.3,0.5-0.4,0.5-0.5c0,0,0,0-0.2,0c-0.1,0-0.3,0-0.4,0c-0.4,0-1.1,0.1-1.3,0.2c-0.1,0-0.2,0-0.3,0
			c-0.5,0.1-0.8,0.1-0.8,0.1c-0.1,0,0.1,0,0.2-0.1c1.5-0.7,2.9-1.7,3.7-2.8c0.5-0.6,0.6-0.9,0.7-1.5c0-0.1,0-0.3,0-0.4
			c0-0.1,0-0.3,0-0.4c0-0.3,0-0.3,0.1-0.4c0.1-0.3,0.3-0.6,0.6-0.9c0.1-0.1,0.1-0.1,0.1-0.1C20.6,9.2,20.1,9.2,20.1,9.2 M12.4,10.9
			C12.4,10.9,12.4,10.9,12.4,10.9c0.3,0.3,0.1,0.9-0.5,1.3c-0.4,0.3-0.8,0.6-0.9,0.9c-0.4,0.8-0.1,1.8,0.7,2.6
			c0.1,0.1,0.1,0.2,0,0.1c-0.3-0.3-0.6-0.6-0.8-1c-0.1-0.1-0.1-0.2-0.2-0.6c-0.1-0.4-0.3-0.7-0.6-0.9L10,13l0-0.1
			c0-0.1,0-0.4,0.1-0.5c0-0.1,0-0.1,0-0.1c-0.4-0.1-0.7-0.5-0.8-0.8l0-0.1l0,0.2c0,0.3,0,0.3,0.1,0.4c0.1,0.2,0.3,0.5,0.4,0.8
			c0,0.1,0.1,0.1-0.1,0.1c-0.3-0.1-0.5-0.2-0.8-0.2l-0.2,0l0,0c0,0,0,0.1,0,0.1c0,0,0,0.1,0.1,0.1c0.2,0.2,0.3,0.3,0.3,0.3
			c0,0.1,0.1,0.8,0.1,1c0.2,0.6,1,1.3,2.3,2.1c0.1,0.1,0.2,0.1,0.2,0.1c0,0,0,0,0,0c0,0,0,0,0,0c0,0,0.3,0.1,0.6,0.2
			c0.6,0.1,1.4,0,1.7-0.1c0.7-0.4,1.9-1.2,2.2-1.7c0.1-0.1,0.1-0.2,0.3-0.4c0.1-0.2,0.2-0.5,0.2-1.1c0-0.1,0-0.1,0-0.1
			c0,0,0.1-0.2,0.3-0.3c0,0,0.1-0.1,0.1-0.1c0,0,0,0,0-0.1l0-0.1l-0.2,0c-0.7,0-1.3,0.4-1.7,1c-0.1,0.2-0.2,0.4-0.3,0.7
			c-0.2,0.6-0.5,1.1-0.9,1.4c-0.1,0.1-0.1,0.1,0,0c0.8-0.8,1-1.7,0.7-2.5c-0.1-0.3-0.5-0.7-0.9-1c-0.6-0.4-0.9-0.9-0.6-1.2
			c0,0,0.1-0.1,0.1-0.1c0,0-0.4,0.1-0.4,0.2c0,0,0,0.2,0,0.5l0,0.5l0.1,0.1c1.2,1.2,1.4,2.5,0.8,3.6c-0.1,0.1-0.1,0.1,0,0
			c0.3-0.9,0.1-2.2-0.8-3.4c-0.1-0.1-0.1-0.1-0.2,0c-0.8,1.2-1.1,2.5-0.7,3.5c0.1,0.2-0.1-0.1-0.2-0.3c-0.5-1-0.2-2.1,0.8-3.3
			l0.1-0.1l0-0.2c0-0.1,0-0.3,0-0.5l0-0.2L12.6,11C12.6,10.9,12.5,10.9,12.4,10.9C12.4,10.9,12.4,10.9,12.4,10.9 M10.8,11
			c0.1,0.1,0.1,0.5,0,0.6c-0.1,0.1-0.1,0.3-0.3,0.4c0,0.1-0.1,0.1-0.1,0.2c-0.1,0.1-0.1,0.6,0,0.9c0,0.2,0.2,0.6,0.2,0.6
			c0,0,0-0.1,0-0.1c0.2-0.6,0.5-1.1,0.6-1.1c0,0,0-0.1,0-0.4c0-0.5-0.2-0.8-0.4-0.9C10.8,11,10.8,11,10.8,11 M14.7,11.1
			c-0.3,0.1-0.5,0.6-0.5,1.1c0,0.2,0,0.2,0.1,0.2c0.2,0.1,0.4,0.5,0.6,1.1c0.1,0.2,0,0.1,0.1,0.1c0.1-0.1,0.2-0.6,0.2-0.9
			c0-0.4,0-0.4-0.1-0.6c-0.3-0.3-0.3-0.5-0.3-0.7C14.8,11.2,14.8,11.1,14.7,11.1C14.8,11.1,14.8,11.1,14.7,11.1 M7,15
			c0,0-0.1,0-0.1,0c-0.1,0-0.2,0-0.8,0c-0.4,0-0.7,0-0.7,0c0.1,0,1.2,0.2,1.8,0.2c0.3,0,0.8,0,0.9,0c0,0,0.1,0,0.1,0
			c0.1,0,0.1,0-0.1-0.1C7.8,15,7.3,14.9,7,15 M11.3,16.2C11.3,16.2,11.3,16.2,11.3,16.2C11.3,16.2,11.3,16.2,11.3,16.2
			C11.3,16.2,11.3,16.2,11.3,16.2C11.3,16.2,11.3,16.2,11.3,16.2"/>
	</g>
</g>
</svg>
